<svg xmlns:svg="http://www.w3.org/2000/svg" xmlns="http://www.w3.org/2000/svg" width="1026" height="1026" version="1"><path d="m345.7 51.4c-14-0.3-26.1 8-36.8 16-8.3 6.3-17.7 12.5-28.6 11.8-15.6-0.7-31.1-6.8-46.7-3.1-13.2 2.7-22.5 13.7-28.6 25.1-6.2 10.9-11.3 24.2-23.4 29.9-14.2 6.8-31.2 7.2-43.9 17.2-11.4 8.4-15.7 22.9-16.3 36.5-1 12.3 0.4 26.1-7.8 36.4-9.7 12-24.1 19.6-31.5 33.5-6.8 11.6-5.8 26.1-0.9 38.2 4.3 12.1 12.3 24 10.4 37.4-2.5 15.2-12.6 28.1-14.1 43.6-1.8 12.8 3.9 25.4 12.8 34.3 8.4 9.3 20.2 15.7 26.2 27 5.7 12.6 2.9 26.8 5.5 40 1.7 12.6 8.7 24.8 20 31 12.7 7.8 28.4 8.1 41.4 15.4 11.5 7 15.8 20.6 22.7 31.5 6.6 11.5 17.5 21.7 31.1 23.4 15.3 2.4 30-4.1 45.2-3.9 12.9 0.5 23 9.9 33.2 16.7 9.6 6.8 20.9 12.4 33 11.2 14.5-1 26.4-10.3 37.7-18.6 7.5-5.7 16.6-10.1 26.2-9.1 15.6 1.1 31.4 7.1 47 2.6 13.5-3.5 22.3-15.5 28.4-27.3 5.6-10.5 11.2-22.5 22.8-27.7 13.7-6.3 29.9-6.8 42.3-16.1 11.3-7.9 16.2-21.9 17-35.1 1.3-12.7-0.7-27 7.5-37.8 9.6-12.3 24.5-20 32-34.1 6.8-11.6 5.8-26.1 0.9-38.2-4.4-12.4-12.6-24.6-10.3-38.3 3-15.5 13.4-28.7 14.1-44.8 1.2-13.3-5.9-25.7-15.3-34.5-8.5-8.7-20.2-15.2-24.9-26.9-4.7-13.5-1.8-28.1-5.3-41.8-2.5-12.5-11.1-23.6-22.8-28.9-12.5-6.5-27.4-6.7-39.4-14.4-11.6-8.3-15.4-22.9-23.4-34-6.8-10.6-17.8-19.2-30.6-20.1-14.9-1.8-29.3 4.5-44.2 4.1-12.3-0.8-21.9-9.6-31.7-16-9.1-6.3-19.5-12.3-31-11.9z" fill="#60f"/></svg>