<?xml version="1.0" encoding="UTF-8" standalone="no"?>
<!-- Created with Inkscape (http://www.inkscape.org/) -->

<svg
   xmlns:dc="http://purl.org/dc/elements/1.1/"
   xmlns:cc="http://creativecommons.org/ns#"
   xmlns:rdf="http://www.w3.org/1999/02/22-rdf-syntax-ns#"
   xmlns:svg="http://www.w3.org/2000/svg"
   xmlns="http://www.w3.org/2000/svg"
   xmlns:sodipodi="http://sodipodi.sourceforge.net/DTD/sodipodi-0.dtd"
   xmlns:inkscape="http://www.inkscape.org/namespaces/inkscape"
   width="1026"
   height="1026"
   id="svg2"
   sodipodi:version="0.32"
   inkscape:version="0.47 r22583"
   sodipodi:docname="New document 20"
   inkscape:output_extension="org.inkscape.output.svg.inkscape"
   version="1.0">
  <defs
     id="defs4">
    <inkscape:perspective
       sodipodi:type="inkscape:persp3d"
       inkscape:vp_x="0 : 526.18109 : 1"
       inkscape:vp_y="0 : 1000 : 0"
       inkscape:vp_z="744.09448 : 526.18109 : 1"
       inkscape:persp3d-origin="372.04724 : 350.78739 : 1"
       id="perspective10" />
    <inkscape:perspective
       id="perspective3266"
       inkscape:persp3d-origin="0.5 : 0.33333333 : 1"
       inkscape:vp_z="1 : 0.5 : 1"
       inkscape:vp_y="0 : 1000 : 0"
       inkscape:vp_x="0 : 0.5 : 1"
       sodipodi:type="inkscape:persp3d" />
  </defs>
  <sodipodi:namedview
     id="base"
     pagecolor="#ffffff"
     bordercolor="#666666"
     borderopacity="1.0"
     gridtolerance="10000"
     guidetolerance="10"
     objecttolerance="10"
     inkscape:pageopacity="0.0"
     inkscape:pageshadow="2"
     inkscape:zoom="0.66551454"
     inkscape:cx="345.71429"
     inkscape:cy="700"
     inkscape:document-units="in"
     inkscape:current-layer="layer1"
     showgrid="false"
     units="in"
     inkscape:window-width="1920"
     inkscape:window-height="1005"
     inkscape:window-x="-9"
     inkscape:window-y="-9"
     inkscape:window-maximized="0" />
  <metadata
     id="metadata7">
    <rdf:RDF>
      <cc:Work
         rdf:about="">
        <dc:format>image/svg+xml</dc:format>
        <dc:type
           rdf:resource="http://purl.org/dc/dcmitype/StillImage" />
        <dc:creator>
          <cc:Agent>
            <dc:title>HeatherM</dc:title>
          </cc:Agent>
        </dc:creator>
        <dc:title></dc:title>
      </cc:Work>
    </rdf:RDF>
  </metadata>
  <g
     inkscape:label="Layer 1"
     inkscape:groupmode="layer"
     id="layer1">
    <path
       style="fill:#6600ff;fill-opacity:1;fill-rule:nonzero;stroke:none"
       d="m 345.69585,51.426146 c -13.95603,-0.2825 -26.10076,7.95827 -36.81252,15.99751 -8.27509,6.25881 -17.72525,12.50557 -28.56108,11.83226 -15.57151,-0.67084 -31.05641,-6.82719 -46.68285,-3.10894 -13.21331,2.70159 -22.54533,13.70967 -28.64727,25.059704 -6.23263,10.94749 -11.29193,24.15196 -23.39829,29.92786 -14.22518,6.79324 -31.19003,7.18701 -43.94934,17.1717 -11.44724,8.3544 -15.7033,22.94708 -16.32864,36.50926 -0.95835,12.29682 0.3728,26.13563 -7.83892,36.39883 -9.65479,11.96196 -24.128694,19.62498 -31.538754,33.4905 -6.79444,11.6215 -5.80023,26.08995 -0.87875,38.20686 4.29211,12.1348 12.25981,24.01999 10.42519,37.43943 -2.509,15.1903 -12.62912,28.08197 -14.09164,43.57163 -1.80753,12.75528 3.88666,25.41476 12.80838,34.31691 8.41369,9.29759 20.200034,15.65525 26.227424,26.98529 5.70319,12.56441 2.91689,26.79794 5.45795,40.02947 1.72579,12.60748 8.65225,24.79318 20.02536,31.01314 12.7452,7.8238 28.43603,8.14608 41.41313,15.36322 11.52085,7.02612 15.7573,20.63093 22.65713,31.47067 6.61765,11.52692 17.45254,21.71877 31.12577,23.38656 15.26955,2.43256 30.02334,-4.14138 45.21138,-3.93235 12.93639,0.54898 22.97569,9.89029 33.24018,16.66893 9.61068,6.76011 20.943,12.37127 33.02288,11.22569 14.50873,-1.03243 26.37553,-10.34505 37.66864,-18.60186 7.51449,-5.66658 16.58718,-10.09987 26.23486,-9.1371 15.61814,1.13775 31.39472,7.08918 47.01621,2.62298 13.50332,-3.51795 22.27708,-15.51445 28.36759,-27.29784 5.60877,-10.53175 11.22286,-22.51713 22.77847,-27.65623 13.73523,-6.29355 29.87228,-6.84215 42.27267,-16.14006 11.34611,-7.85815 16.18569,-21.85075 17.03645,-35.11667 1.26207,-12.68706 -0.69123,-26.95384 7.48514,-37.78507 9.63868,-12.33331 24.46294,-20.04209 32.01092,-34.1381 6.829,-11.61218 5.7503,-26.0684 0.9135,-38.20056 -4.3949,-12.38135 -12.64943,-24.59767 -10.28543,-38.32006 2.95864,-15.46201 13.37333,-28.74857 14.14723,-44.77689 1.2418,-13.29483 -5.8538,-25.72826 -15.29789,-34.53871 -8.50661,-8.71987 -20.17112,-15.18261 -24.91105,-26.9499 -4.70165,-13.46209 -1.7559,-28.12923 -5.28708,-41.84604 -2.53217,-12.53309 -11.08893,-23.59767 -22.79084,-28.85661 -12.51025,-6.45302 -27.40459,-6.74856 -39.37484,-14.35812 -11.61186,-8.26181 -15.38251,-22.85816 -23.36032,-34.027574 -6.78396,-10.58069 -17.75906,-19.16024 -30.63507,-20.0934 -14.9387,-1.80345 -29.3055,4.521 -44.17118,4.09847 -12.29646,-0.76371 -21.90226,-9.55661 -31.71871,-16.028 -9.1251,-6.32361 -19.49535,-12.34572 -30.98599,-11.87679 z"
       id="path4705"
       sodipodi:nodetypes="ccccccccccccccccccccccccccccccccccccccccccccc" />
  </g>
</svg>
